<svg width="1200" height="750" viewBox="0 0 1200 750" fill="none" xmlns="http://www.w3.org/2000/svg" role="img" aria-labelledby="title desc">
  <title id="title">Retail returns analytics screenshot placeholder</title>
  <desc id="desc">Dark dashboard-style placeholder for the retail returns analytics platform.</desc>
  <rect width="1200" height="750" fill="#050807"/>
  <rect x="70" y="70" width="1060" height="610" rx="18" fill="#0D1110" stroke="#26332D" stroke-width="2"/>
  <rect x="70" y="70" width="1060" height="78" rx="18" fill="#151A18"/>
  <rect x="70" y="128" width="1060" height="20" fill="#151A18"/>
  <text x="112" y="120" fill="#E6F1EC" font-family="JetBrains Mono, monospace" font-size="32" font-weight="800">retail_returns.analytics</text>
  <text x="850" y="120" fill="#39FF88" font-family="JetBrains Mono, monospace" font-size="20" font-weight="700">status: modeled</text>
  <rect x="110" y="190" width="220" height="120" rx="12" fill="#151A18" stroke="#26332D"/>
  <rect x="365" y="190" width="220" height="120" rx="12" fill="#151A18" stroke="#26332D"/>
  <rect x="620" y="190" width="220" height="120" rx="12" fill="#151A18" stroke="#26332D"/>
  <rect x="875" y="190" width="215" height="120" rx="12" fill="#151A18" stroke="#26332D"/>
  <text x="135" y="235" fill="#9FB5AA" font-family="JetBrains Mono, monospace" font-size="20" font-weight="600">return_rate</text>
  <text x="135" y="278" fill="#39FF88" font-family="JetBrains Mono, monospace" font-size="42" font-weight="800">8.4%</text>
  <text x="390" y="235" fill="#9FB5AA" font-family="JetBrains Mono, monospace" font-size="20" font-weight="600">refund_value</text>
  <text x="390" y="278" fill="#39FF88" font-family="JetBrains Mono, monospace" font-size="42" font-weight="800">$1.2M</text>
  <text x="645" y="235" fill="#9FB5AA" font-family="JetBrains Mono, monospace" font-size="20" font-weight="600">valid_rows</text>
  <text x="645" y="278" fill="#39FF88" font-family="JetBrains Mono, monospace" font-size="42" font-weight="800">98.7%</text>
  <text x="900" y="235" fill="#9FB5AA" font-family="JetBrains Mono, monospace" font-size="20" font-weight="600">open_flags</text>
  <text x="900" y="278" fill="#39FF88" font-family="JetBrains Mono, monospace" font-size="42" font-weight="800">34</text>
  <rect x="110" y="355" width="620" height="250" rx="14" fill="#0D1110" stroke="#26332D"/>
  <text x="140" y="402" fill="#E6F1EC" font-family="JetBrains Mono, monospace" font-size="24" font-weight="800">&gt; returns_by_category</text>
  <line x1="140" y1="575" x2="690" y2="575" stroke="#26332D" stroke-width="2"/>
  <rect x="150" y="545" width="58" height="30" rx="5" fill="#1FA463"/>
  <rect x="236" y="497" width="58" height="78" rx="5" fill="#39FF88"/>
  <rect x="322" y="448" width="58" height="127" rx="5" fill="#1FA463"/>
  <rect x="408" y="470" width="58" height="105" rx="5" fill="#39FF88"/>
  <rect x="494" y="420" width="58" height="155" rx="5" fill="#1FA463"/>
  <rect x="580" y="515" width="58" height="60" rx="5" fill="#39FF88"/>
  <rect x="770" y="355" width="320" height="250" rx="14" fill="#0D1110" stroke="#26332D"/>
  <text x="800" y="402" fill="#E6F1EC" font-family="JetBrains Mono, monospace" font-size="24" font-weight="800">&gt; pipeline_layers</text>
  <rect x="810" y="445" width="240" height="38" rx="8" fill="#151A18" stroke="#26332D"/>
  <rect x="810" y="502" width="210" height="38" rx="8" fill="#151A18" stroke="#26332D"/>
  <rect x="810" y="559" width="260" height="38" rx="8" fill="#151A18" stroke="#26332D"/>
  <text x="830" y="470" fill="#9FB5AA" font-family="JetBrains Mono, monospace" font-size="18" font-weight="600">bronze / raw csv</text>
  <text x="830" y="527" fill="#9FB5AA" font-family="JetBrains Mono, monospace" font-size="18" font-weight="600">silver / cleaned</text>
  <text x="830" y="584" fill="#9FB5AA" font-family="JetBrains Mono, monospace" font-size="18" font-weight="600">gold / analytics mart</text>
</svg>
